<svg xmlns="http://www.w3.org/2000/svg" width="214" height="61.73617632389963" viewBox="0 0 214 61.73617632389963" class="editor-view__logo-preview" data-v-8d8ae3dd="" data-v-b9d2a614=""><svg id="mark" viewBox="0 0 24 24" width="59" height="59" x="0" y="1.3680881619498138" data-v-8d8ae3dd="" style="fill: rgb(255, 255, 255);"><rect x="0" y="0" width="100%" height="100%" fill="none" data-v-8d8ae3dd=""></rect><g data-v-8d8ae3dd=""><rect xmlns="http://www.w3.org/2000/svg" x="6.3" y="6.3" transform="matrix(0.7071 -0.7071 0.7071 0.7071 -4.9706 12)" fill="none" stroke="#000000" stroke-width="2" stroke-linecap="round" stroke-linejoin="round" stroke-miterlimit="10" width="11.3" height="11.3"></rect><circle xmlns="http://www.w3.org/2000/svg" cx="4" cy="12" r="2"></circle><circle xmlns="http://www.w3.org/2000/svg" cx="12" cy="20" r="2"></circle><circle xmlns="http://www.w3.org/2000/svg" cx="12" cy="4" r="2"></circle><circle xmlns="http://www.w3.org/2000/svg" cx="20" cy="12" r="2"></circle></g></svg><svg id="name" viewBox="0 0 139.97799682617188 33.99399948120117" width="139" height="33.75649055583207" x="75" y="4" data-v-8d8ae3dd="" style="fill: rgb(255, 255, 255);"><rect x="0" y="0" width="100%" height="100%" fill="none" data-v-8d8ae3dd=""></rect><g data-v-8d8ae3dd=""><path xmlns="http://www.w3.org/2000/svg" d="M9.29 33.90L9.29 33.90Q6.12 33.90 4.05 32.55Q1.98 31.19 0.99 29.07Q0 26.96 0 24.79L0 24.79Q0 22.49 0.97 20.70Q1.93 18.91 3.52 17.69Q5.11 16.47 7.04 15.82Q8.97 15.18 10.86 15.18L10.86 15.18Q12.19 15.18 13.52 15.57Q14.86 15.96 15.73 16.72Q16.61 17.48 16.61 18.63L16.61 18.63Q16.61 19.41 15.96 20.08Q15.32 20.75 14.08 20.75L14.08 20.75Q12.93 20.75 12.28 20.15Q11.64 19.55 11.27 18.40L11.27 18.40Q10.95 17.30 10.56 16.72Q10.17 16.15 9.06 16.15L9.06 16.15Q7.08 16.15 5.91 18.12Q4.74 20.10 4.74 23.28L4.74 23.28Q4.74 25.58 5.43 27.48Q6.12 29.39 7.68 30.52Q9.25 31.65 11.87 31.65L11.87 31.65Q13.25 31.65 14.19 31.33Q15.13 31.00 16.28 30.45L16.28 30.45Q16.38 30.36 16.54 30.54Q16.70 30.73 16.61 30.82L16.61 30.82Q15.00 32.29 13.29 33.10Q11.59 33.90 9.29 33.90ZM28.61 33.90L28.61 33.90Q25.62 33.90 23.53 32.66Q21.44 31.42 20.36 29.37Q19.27 27.32 19.27 25.02L19.27 25.02Q19.27 22.31 20.65 20.08Q22.03 17.85 24.40 16.51Q26.77 15.18 29.76 15.18L29.76 15.18Q32.61 15.18 34.13 16.40Q35.65 17.62 35.65 19.73L35.65 19.73Q35.65 20.24 35.56 20.65Q35.47 21.07 35.14 21.07L35.14 21.07L30.73 21.07Q30.82 18.91 30.22 17.50Q29.62 16.10 28.06 16.10L28.06 16.10Q26.22 16.10 25.07 18.01Q23.92 19.92 23.92 23.09L23.92 23.09Q23.92 25.67 24.75 27.60Q25.58 29.53 27.14 30.59Q28.70 31.65 30.91 31.65L30.91 31.65Q32.02 31.65 33.28 31.33Q34.55 31.00 35.56 30.36L35.56 30.36Q35.65 30.27 35.81 30.45Q35.97 30.64 35.88 30.77L35.88 30.77Q34.18 32.48 32.41 33.19Q30.64 33.90 28.61 33.90ZM32.34 21.07L22.31 21.16L22.26 20.29L32.34 20.06L32.34 21.07ZM47.66 33.95L47.66 33.95Q44.76 33.95 42.64 32.61Q40.53 31.28 39.38 29.05Q38.23 26.82 38.23 24.24L38.23 24.24Q38.23 21.85 39.15 20.10Q40.07 18.35 41.58 17.23Q43.10 16.10 44.90 15.55Q46.69 15.00 48.44 15.00L48.44 15.00Q51.38 15.00 53.47 16.38Q55.57 17.76 56.67 19.92Q57.78 22.08 57.78 24.52L57.78 24.52Q57.78 27.32 56.37 29.46Q54.97 31.60 52.67 32.77Q50.37 33.95 47.66 33.95ZM49.04 32.98L49.04 32.98Q50.88 32.98 51.80 31.19Q52.72 29.39 52.72 26.13L52.72 26.13Q52.72 22.77 51.86 20.52Q51.01 18.26 49.68 17.11Q48.35 15.96 46.87 15.96L46.87 15.96Q45.08 15.96 44.14 17.57Q43.19 19.18 43.19 22.54L43.19 22.54Q43.19 25.67 43.98 28.04Q44.76 30.41 46.09 31.69Q47.43 32.98 49.04 32.98ZM64.08 33.86L64.08 33.86Q62.79 33.86 62.03 33.10Q61.27 32.34 61.27 31.05L61.27 31.05Q61.27 29.85 62.03 29.12Q62.79 28.38 64.08 28.38L64.08 28.38Q65.41 28.38 66.10 29.12Q66.79 29.85 66.79 31.05L66.79 31.05Q66.79 32.34 66.10 33.10Q65.41 33.86 64.08 33.86ZM82.94 33.35L82.94 33.35Q82.80 33.35 82.80 33.07Q82.80 32.80 82.94 32.80L82.94 32.80Q84.36 32.80 84.87 32.13Q85.38 31.46 85.38 29.62L85.38 29.62L85.38 23Q85.38 20.52 84.48 19.32Q83.58 18.12 81.65 18.12L81.65 18.12Q80.27 18.12 78.82 18.81Q77.37 19.50 76.50 20.70L76.50 20.70L76.27 20.15Q77.88 17.85 79.90 16.45Q81.93 15.04 84.32 15.04L84.32 15.04Q86.89 15.04 88.30 16.65Q89.70 18.26 89.70 20.79L89.70 20.79L89.70 29.62Q89.70 31.46 90.23 32.13Q90.76 32.80 92.18 32.80L92.18 32.80Q92.32 32.80 92.32 33.07Q92.32 33.35 92.18 33.35L92.18 33.35Q91.26 33.35 90.07 33.30Q88.87 33.26 87.54 33.26L87.54 33.26Q86.25 33.26 85.05 33.30Q83.86 33.35 82.94 33.35ZM70.56 33.35L70.56 33.35Q70.43 33.35 70.43 33.07Q70.43 32.80 70.56 32.80L70.56 32.80Q71.99 32.80 72.50 32.13Q73.00 31.46 73.00 29.62L73.00 29.62L73.00 20.98Q73.00 19.55 72.68 18.88Q72.36 18.22 71.58 18.22L71.58 18.22Q71.16 18.22 70.61 18.38Q70.06 18.54 69.37 18.86L69.37 18.86Q69.18 18.95 69.09 18.68Q69 18.40 69.09 18.35L69.09 18.35L75.49 15.23Q75.76 15.13 75.81 15.13L75.81 15.13Q76.31 15.13 76.82 16.24Q77.33 17.34 77.33 19.41L77.33 19.41L77.33 29.62Q77.33 31.46 77.85 32.13Q78.38 32.80 79.81 32.80L79.81 32.80Q79.95 32.80 79.95 33.07Q79.95 33.35 79.81 33.35L79.81 33.35Q78.89 33.35 77.69 33.30Q76.50 33.26 75.16 33.26L75.16 33.26Q73.88 33.26 72.68 33.30Q71.48 33.35 70.56 33.35ZM101.66 33.95L101.66 33.95Q99.68 33.95 98.05 32.89Q96.42 31.83 95.43 29.83Q94.44 27.83 94.44 24.98L94.44 24.98Q94.44 22.17 95.45 20.26Q96.46 18.35 98.05 17.20Q99.64 16.05 101.48 15.53Q103.32 15.00 104.97 15.00L104.97 15.00Q106.63 15.00 108.05 15.41Q109.48 15.82 110.63 16.42L110.63 16.42L109.57 20.15Q108.61 18.08 107.36 17.14Q106.12 16.19 104.28 16.19L104.28 16.19Q101.94 16.19 100.56 17.83Q99.18 19.46 99.18 23.51L99.18 23.51Q99.18 26.13 99.82 27.97Q100.46 29.81 101.61 30.77Q102.76 31.74 104.19 31.74L104.19 31.74Q106.03 31.74 107.41 30.73Q108.79 29.72 110.08 28.29L110.08 28.29L110.54 28.70Q109.57 29.81 108.26 31.03Q106.95 32.25 105.32 33.10Q103.68 33.95 101.66 33.95ZM112.88 0.60L112.88 0.60L112.88 28.01Q112.88 29.58 113.18 30.22Q113.48 30.87 114.17 30.87L114.17 30.87Q114.49 30.87 114.98 30.73Q115.46 30.59 116.06 30.36L116.06 30.36Q116.20 30.27 116.33 30.52Q116.47 30.77 116.38 30.87L116.38 30.87L110.03 33.95Q109.89 33.99 109.80 33.99L109.80 33.99Q109.34 33.99 108.95 32.84Q108.56 31.69 108.56 29.58L108.56 29.58L108.56 6.26Q108.56 4.69 108.28 3.98Q108.01 3.27 107.23 3.27L107.23 3.27Q106.90 3.27 106.47 3.40Q106.03 3.54 105.52 3.77L105.52 3.77Q105.34 3.82 105.20 3.54Q105.06 3.27 105.16 3.22L105.16 3.22L111.92 0.05Q112.01 0 112.10 0L112.10 0Q112.33 0 112.61 0.21Q112.88 0.41 112.88 0.60ZM130.59 33.35L130.59 33.35Q130.46 33.35 130.46 33.07Q130.46 32.80 130.59 32.80L130.59 32.80Q132.02 32.80 132.53 32.13Q133.03 31.46 133.03 29.62L133.03 29.62L133.03 23Q133.03 20.52 132.13 19.32Q131.24 18.12 129.31 18.12L129.31 18.12Q127.93 18.12 126.48 18.81Q125.03 19.50 124.15 20.70L124.15 20.70L123.92 20.15Q125.53 17.85 127.56 16.45Q129.58 15.04 131.97 15.04L131.97 15.04Q134.55 15.04 135.95 16.65Q137.36 18.26 137.36 20.79L137.36 20.79L137.36 29.62Q137.36 31.46 137.88 32.13Q138.41 32.80 139.84 32.80L139.84 32.80Q139.98 32.80 139.98 33.07Q139.98 33.35 139.84 33.35L139.84 33.35Q138.92 33.35 137.72 33.30Q136.53 33.26 135.19 33.26L135.19 33.26Q133.91 33.26 132.71 33.30Q131.51 33.35 130.59 33.35ZM118.22 33.35L118.22 33.35Q118.08 33.35 118.08 33.07Q118.08 32.80 118.22 32.80L118.22 32.80Q119.65 32.80 120.15 32.13Q120.66 31.46 120.66 29.62L120.66 29.62L120.66 20.98Q120.66 19.55 120.34 18.88Q120.01 18.22 119.23 18.22L119.23 18.22Q118.82 18.22 118.27 18.38Q117.71 18.54 117.02 18.86L117.02 18.86Q116.84 18.95 116.75 18.68Q116.66 18.40 116.75 18.35L116.75 18.35L123.14 15.23Q123.42 15.13 123.46 15.13L123.46 15.13Q123.97 15.13 124.48 16.24Q124.98 17.34 124.98 19.41L124.98 19.41L124.98 29.62Q124.98 31.46 125.51 32.13Q126.04 32.80 127.47 32.80L127.47 32.80Q127.60 32.80 127.60 33.07Q127.60 33.35 127.47 33.35L127.47 33.35Q126.55 33.35 125.35 33.30Q124.15 33.26 122.82 33.26L122.82 33.26Q121.53 33.26 120.34 33.30Q119.14 33.35 118.22 33.35Z"></path></g></svg><svg id="slogan" viewBox="0 0 131.9199981689453 20.1200008392334" width="131" height="19.979685768067558" x="75" y="41.75649055583207" data-v-8d8ae3dd="" style="fill: rgb(255, 255, 255);"><rect x="0" y="0" width="100%" height="100%" fill="none" data-v-8d8ae3dd=""></rect><g data-v-8d8ae3dd=""><path xmlns="http://www.w3.org/2000/svg" d="M11.04 14.50L11.04 14.50Q10.98 14.50 10.98 14.38Q10.98 14.26 11.04 14.26L11.04 14.26Q11.66 14.26 11.89 13.97Q12.12 13.68 12.12 12.88L12.12 12.88L12.12 10Q12.12 7.88 10.62 7.88L10.62 7.88Q10.00 7.88 9.42 8.18Q8.84 8.48 8.48 9L8.48 9L8.38 8.76Q9.06 7.76 9.91 7.15Q10.76 6.54 11.76 6.54L11.76 6.54Q12.82 6.54 13.40 7.15Q13.98 7.76 13.98 9.04L13.98 9.04L13.98 12.88Q13.98 13.68 14.21 13.97Q14.44 14.26 15.06 14.26L15.06 14.26Q15.14 14.26 15.14 14.38Q15.14 14.50 15.06 14.50L15.06 14.50Q14.66 14.50 14.14 14.48Q13.62 14.46 13.04 14.46L13.04 14.46Q12.48 14.46 11.96 14.48Q11.44 14.50 11.04 14.50ZM5.80 14.50L5.80 14.50Q5.74 14.50 5.74 14.38Q5.74 14.26 5.80 14.26L5.80 14.26Q6.42 14.26 6.65 13.97Q6.88 13.68 6.88 12.88L6.88 12.88L6.88 10Q6.88 7.88 5.38 7.88L5.38 7.88Q4.76 7.88 4.18 8.18Q3.60 8.48 3.24 9L3.24 9L3.14 8.76Q3.82 7.76 4.67 7.15Q5.52 6.54 6.52 6.54L6.52 6.54Q7.58 6.54 8.16 7.12Q8.74 7.70 8.74 8.82L8.74 8.82L8.74 12.88Q8.74 13.68 8.97 13.97Q9.20 14.26 9.82 14.26L9.82 14.26Q9.90 14.26 9.90 14.38Q9.90 14.50 9.82 14.50L9.82 14.50Q9.42 14.50 8.90 14.48Q8.38 14.46 7.80 14.46L7.80 14.46Q7.24 14.46 6.72 14.48Q6.20 14.50 5.80 14.50ZM0.66 14.50L0.66 14.50Q0.60 14.50 0.60 14.38Q0.60 14.26 0.66 14.26L0.66 14.26Q1.28 14.26 1.50 13.97Q1.72 13.68 1.72 12.88L1.72 12.88L1.72 9.12Q1.72 8.50 1.58 8.21Q1.44 7.92 1.10 7.92L1.10 7.92Q0.92 7.92 0.68 7.99Q0.44 8.06 0.14 8.20L0.14 8.20Q0.06 8.24 0.02 8.12Q-0.02 8 0.02 7.98L0.02 7.98L2.80 6.62Q2.92 6.58 2.94 6.58L2.94 6.58Q3.16 6.58 3.38 7.06Q3.60 7.54 3.60 8.44L3.60 8.44L3.60 12.88Q3.60 13.68 3.83 13.97Q4.06 14.26 4.68 14.26L4.68 14.26Q4.74 14.26 4.74 14.38Q4.74 14.50 4.68 14.50L4.68 14.50Q4.28 14.50 3.76 14.48Q3.24 14.46 2.66 14.46L2.66 14.46Q2.10 14.46 1.58 14.48Q1.06 14.50 0.66 14.50ZM23.86 13.64L21.80 14.62Q21.72 14.66 21.60 14.66L21.60 14.66Q21.24 14.66 20.88 14.18Q20.52 13.70 20.52 12.80L20.52 12.80L20.52 9.40Q20.52 8.62 20.42 8.10Q20.32 7.58 20.10 7.32Q19.88 7.06 19.50 7.06L19.50 7.06Q19.20 7.06 18.96 7.21Q18.72 7.36 18.58 7.69Q18.44 8.02 18.40 8.60L18.40 8.60Q18.34 9.18 18.04 9.45Q17.74 9.72 17.22 9.72L17.22 9.72Q16.72 9.72 16.50 9.50Q16.28 9.28 16.28 8.90L16.28 8.90Q16.28 8.46 16.70 8.05Q17.12 7.64 17.75 7.31Q18.38 6.98 19.06 6.79Q19.74 6.60 20.28 6.60L20.28 6.60Q21.16 6.60 21.78 7.13Q22.40 7.66 22.40 8.80L22.40 8.80L22.40 12.34Q22.40 12.92 22.61 13.24Q22.82 13.56 23.20 13.56L23.20 13.56Q23.48 13.56 23.78 13.42L23.78 13.42Q23.86 13.38 23.91 13.49Q23.96 13.60 23.86 13.64L23.86 13.64ZM17.60 14.64L17.60 14.64Q16.98 14.64 16.60 14.31Q16.22 13.98 16.22 13.36L16.22 13.36Q16.22 12.64 16.77 12.33Q17.32 12.02 18.48 11.64L18.48 11.64L20.72 10.92L20.80 11.22L19.42 11.72Q18.88 11.92 18.65 12.16Q18.42 12.40 18.42 12.74L18.42 12.74Q18.42 13.16 18.66 13.40Q18.90 13.64 19.26 13.64L19.26 13.64Q19.42 13.64 19.69 13.57Q19.96 13.50 20.28 13.36L20.28 13.36L21.38 12.76L21.40 13.10L19.68 14.04Q19.18 14.30 18.62 14.47Q18.06 14.64 17.60 14.64ZM24.62 14.50L24.62 14.50Q24.56 14.50 24.56 14.38Q24.56 14.26 24.62 14.26L24.62 14.26Q25.24 14.26 25.46 13.97Q25.68 13.68 25.68 12.88L25.68 12.88L25.68 9.30Q25.68 8.64 25.55 8.33Q25.42 8.02 25.08 8.02L25.08 8.02Q24.94 8.02 24.75 8.08Q24.56 8.14 24.34 8.24L24.34 8.24Q24.26 8.26 24.21 8.14Q24.16 8.02 24.22 8L24.22 8L27.24 6.60Q27.28 6.58 27.30 6.58L27.30 6.58Q27.40 6.58 27.50 6.68Q27.60 6.78 27.60 6.86L27.60 6.86Q27.60 7.10 27.58 7.66Q27.56 8.22 27.56 9.26L27.56 9.26L27.56 12.88Q27.56 13.68 27.79 13.97Q28.02 14.26 28.64 14.26L28.64 14.26Q28.70 14.26 28.70 14.38Q28.70 14.50 28.64 14.50L28.64 14.50Q28.24 14.50 27.72 14.48Q27.20 14.46 26.62 14.46L26.62 14.46Q26.06 14.46 25.54 14.48Q25.02 14.50 24.62 14.50ZM26.54 4.60L26.54 4.60Q25.98 4.60 25.65 4.28Q25.32 3.96 25.32 3.38L25.32 3.38Q25.32 2.86 25.65 2.55Q25.98 2.24 26.54 2.24L26.54 2.24Q27.10 2.24 27.40 2.55Q27.70 2.86 27.70 3.38L27.70 3.38Q27.70 4.60 26.54 4.60ZM42.60 6.78L42.60 6.78Q42.64 6.78 42.64 6.90Q42.64 7.02 42.60 7.02L42.60 7.02Q41.92 7.02 41.46 7.60Q41 8.18 40.64 9.16L40.64 9.16L38.42 15.06Q37.70 16.98 37.03 18.09Q36.36 19.20 35.68 19.66Q35 20.12 34.24 20.12L34.24 20.12Q33.66 20.12 33.33 19.87Q33 19.62 33 19.14L33 19.14Q33 18.66 33.29 18.43Q33.58 18.20 33.96 18.20L33.96 18.20Q34.30 18.20 34.50 18.33Q34.70 18.46 34.90 18.59Q35.10 18.72 35.42 18.72L35.42 18.72Q35.90 18.72 36.30 18.31Q36.70 17.90 37.16 16.91Q37.62 15.92 38.24 14.20L38.24 14.20L38.18 15.30L34.78 8.44Q34.34 7.56 34.09 7.29Q33.84 7.02 33.48 7.02L33.48 7.02Q33.42 7.02 33.42 6.90Q33.42 6.78 33.48 6.78L33.48 6.78Q33.88 6.78 34.33 6.80Q34.78 6.82 35.18 6.82L35.18 6.82Q35.90 6.82 36.44 6.80Q36.98 6.78 37.42 6.78L37.42 6.78Q37.48 6.78 37.48 6.90Q37.48 7.02 37.42 7.02L37.42 7.02Q36.72 7.02 36.52 7.18Q36.32 7.34 36.54 7.80L36.54 7.80L39.08 13L38.36 14.18L40.10 9.14Q40.44 8.16 40.15 7.59Q39.86 7.02 39.04 7.02L39.04 7.02Q39 7.02 39 6.90Q39 6.78 39.04 6.78L39.04 6.78Q39.52 6.78 39.95 6.80Q40.38 6.82 41.06 6.82L41.06 6.82Q41.54 6.82 41.85 6.80Q42.16 6.78 42.60 6.78ZM47.02 14.74L47.02 14.74Q45.72 14.74 44.81 14.20Q43.90 13.66 43.43 12.77Q42.96 11.88 42.96 10.88L42.96 10.88Q42.96 9.70 43.56 8.73Q44.16 7.76 45.19 7.18Q46.22 6.60 47.52 6.60L47.52 6.60Q48.76 6.60 49.42 7.13Q50.08 7.66 50.08 8.58L50.08 8.58Q50.08 8.80 50.04 8.98Q50 9.16 49.86 9.16L49.86 9.16L47.94 9.16Q47.98 8.22 47.72 7.61Q47.46 7 46.78 7L46.78 7Q45.98 7 45.48 7.83Q44.98 8.66 44.98 10.04L44.98 10.04Q44.98 11.16 45.34 12Q45.70 12.84 46.38 13.30Q47.06 13.76 48.02 13.76L48.02 13.76Q48.50 13.76 49.05 13.62Q49.60 13.48 50.04 13.20L50.04 13.20Q50.08 13.16 50.15 13.24Q50.22 13.32 50.18 13.38L50.18 13.38Q49.44 14.12 48.67 14.43Q47.90 14.74 47.02 14.74ZM48.64 9.16L44.28 9.20L44.26 8.82L48.64 8.72L48.64 9.16ZM54.52 14.74L54.52 14.74Q53.42 14.74 52.79 14.04Q52.16 13.34 52.16 12.24L52.16 12.24L52.16 9.30Q52.16 8.64 52.01 8.32Q51.86 8 51.54 8L51.54 8Q51.32 8 51.04 8.14L51.04 8.14Q50.96 8.16 50.91 8.04Q50.86 7.92 50.92 7.90L50.92 7.90L53.60 6.62Q53.66 6.60 53.70 6.60L53.70 6.60Q53.80 6.60 53.91 6.69Q54.02 6.78 54.02 6.86L54.02 6.86L54.02 11.28Q54.02 12.36 54.43 12.90Q54.84 13.44 55.68 13.44L55.68 13.44Q56.26 13.44 56.84 13.11Q57.42 12.78 57.76 12.28L57.76 12.28L57.88 12.52Q57.20 13.50 56.36 14.12Q55.52 14.74 54.52 14.74ZM59.24 6.86L59.24 6.86L59.24 12.18Q59.24 12.86 59.37 13.14Q59.50 13.42 59.80 13.42L59.80 13.42Q59.94 13.42 60.15 13.36Q60.36 13.30 60.62 13.20L60.62 13.20Q60.70 13.16 60.76 13.27Q60.82 13.38 60.76 13.42L60.76 13.42L58 14.76Q57.96 14.78 57.90 14.78L57.90 14.78Q57.70 14.78 57.54 14.28Q57.38 13.78 57.38 12.86L57.38 12.86L57.38 9.30Q57.38 8.64 57.23 8.32Q57.08 8 56.76 8L56.76 8Q56.54 8 56.24 8.14L56.24 8.14Q56.18 8.16 56.13 8.04Q56.08 7.92 56.14 7.90L56.14 7.90L58.82 6.62Q58.86 6.60 58.92 6.60L58.92 6.60Q59.02 6.60 59.13 6.69Q59.24 6.78 59.24 6.86ZM69.14 14.74L69.14 14.74Q68.66 14.74 68.17 14.58Q67.68 14.42 67.35 14.02Q67.02 13.62 67.02 12.90L67.02 12.90L67.02 8.46Q67.02 8.04 66.92 7.80Q66.82 7.56 66.60 7.46Q66.38 7.36 66.00 7.36L66.00 7.36Q65.92 7.36 65.92 7.18Q65.92 7 66.00 7L66.00 7Q67.02 6.96 67.66 6.55Q68.30 6.14 68.62 5.34L68.62 5.34Q68.66 5.26 68.79 5.26Q68.92 5.26 68.92 5.34L68.92 5.34L68.92 12.24Q68.92 13.04 69.33 13.38Q69.74 13.72 70.34 13.72L70.34 13.72Q70.80 13.72 71.21 13.53Q71.62 13.34 71.90 13.12L71.90 13.12Q71.96 13.06 72.05 13.15Q72.14 13.24 72.06 13.30L72.06 13.30Q71.32 14.04 70.63 14.39Q69.94 14.74 69.14 14.74ZM71.44 7.80L71.44 7.80Q70.62 7.62 69.85 7.55Q69.08 7.48 68.22 7.48L68.22 7.48L68.22 6.96Q69.04 6.96 69.83 6.90Q70.62 6.84 71.52 6.76L71.52 6.76Q71.56 6.76 71.61 6.91Q71.66 7.06 71.66 7.24L71.66 7.24Q71.66 7.44 71.59 7.63Q71.52 7.82 71.44 7.80ZM72.60 14.50L72.60 14.50Q72.56 14.50 72.56 14.38Q72.56 14.26 72.60 14.26L72.60 14.26Q73.22 14.26 73.45 13.97Q73.68 13.68 73.68 12.88L73.68 12.88L73.68 2.72Q73.68 2.04 73.56 1.73Q73.44 1.42 73.10 1.42L73.10 1.42Q72.82 1.42 72.34 1.64L72.34 1.64Q72.28 1.66 72.22 1.54Q72.16 1.42 72.20 1.40L72.20 1.40L75.12 0.02Q75.16 0 75.18 0Q75.20 0 75.22 0L75.22 0Q75.32 0 75.43 0.09Q75.54 0.18 75.54 0.26L75.54 0.26L75.54 12.88Q75.54 13.68 75.77 13.97Q76 14.26 76.62 14.26L76.62 14.26Q76.70 14.26 76.70 14.38Q76.70 14.50 76.62 14.50L76.62 14.50Q76.22 14.50 75.71 14.48Q75.20 14.46 74.62 14.46L74.62 14.46Q74.04 14.46 73.52 14.48Q73 14.50 72.60 14.50ZM77.98 14.50L77.98 14.50Q77.94 14.50 77.94 14.38Q77.94 14.26 77.98 14.26L77.98 14.26Q78.60 14.26 78.83 13.97Q79.06 13.68 79.06 12.88L79.06 12.88L79.06 10Q79.06 7.88 77.42 7.88L77.42 7.88Q76.82 7.88 76.19 8.18Q75.56 8.48 75.20 9L75.20 9L75.08 8.76Q75.78 7.76 76.66 7.15Q77.54 6.54 78.58 6.54L78.58 6.54Q79.70 6.54 80.31 7.24Q80.92 7.94 80.92 9.04L80.92 9.04L80.92 12.88Q80.92 13.68 81.15 13.97Q81.38 14.26 82 14.26L82 14.26Q82.08 14.26 82.08 14.38Q82.08 14.50 82 14.50L82 14.50Q81.60 14.50 81.09 14.48Q80.58 14.46 80 14.46L80 14.46Q79.42 14.46 78.90 14.48Q78.38 14.50 77.98 14.50ZM86.20 14.74L86.20 14.74Q85.10 14.74 84.47 14.04Q83.84 13.34 83.84 12.24L83.84 12.24L83.84 9.30Q83.84 8.64 83.69 8.32Q83.54 8 83.22 8L83.22 8Q83.00 8 82.72 8.14L82.72 8.14Q82.64 8.16 82.59 8.04Q82.54 7.92 82.60 7.90L82.60 7.90L85.28 6.62Q85.34 6.60 85.38 6.60L85.38 6.60Q85.48 6.60 85.59 6.69Q85.70 6.78 85.70 6.86L85.70 6.86L85.70 11.28Q85.70 12.36 86.11 12.90Q86.52 13.44 87.36 13.44L87.36 13.44Q87.94 13.44 88.52 13.11Q89.10 12.78 89.44 12.28L89.44 12.28L89.56 12.52Q88.88 13.50 88.04 14.12Q87.20 14.74 86.20 14.74ZM90.92 6.86L90.92 6.86L90.92 12.18Q90.92 12.86 91.05 13.14Q91.18 13.42 91.48 13.42L91.48 13.42Q91.62 13.42 91.83 13.36Q92.04 13.30 92.30 13.20L92.30 13.20Q92.38 13.16 92.44 13.27Q92.50 13.38 92.44 13.42L92.44 13.42L89.68 14.76Q89.64 14.78 89.58 14.78L89.58 14.78Q89.38 14.78 89.22 14.28Q89.06 13.78 89.06 12.86L89.06 12.86L89.06 9.30Q89.06 8.64 88.91 8.32Q88.76 8 88.44 8L88.44 8Q88.22 8 87.92 8.14L87.92 8.14Q87.86 8.16 87.81 8.04Q87.76 7.92 87.82 7.90L87.82 7.90L90.50 6.62Q90.54 6.60 90.60 6.60L90.60 6.60Q90.70 6.60 90.81 6.69Q90.92 6.78 90.92 6.86ZM101.16 6.78L101.16 6.78Q101.20 6.78 101.20 6.90Q101.20 7.02 101.16 7.02L101.16 7.02Q100.48 7.02 100.02 7.60Q99.56 8.18 99.20 9.16L99.20 9.16L96.98 15.06Q96.26 16.98 95.59 18.09Q94.92 19.20 94.24 19.66Q93.56 20.12 92.80 20.12L92.80 20.12Q92.22 20.12 91.89 19.87Q91.56 19.62 91.56 19.14L91.56 19.14Q91.56 18.66 91.85 18.43Q92.14 18.20 92.52 18.20L92.52 18.20Q92.86 18.20 93.06 18.33Q93.26 18.46 93.46 18.59Q93.66 18.72 93.98 18.72L93.98 18.72Q94.46 18.72 94.86 18.31Q95.26 17.90 95.72 16.91Q96.18 15.92 96.80 14.20L96.80 14.20L96.74 15.30L93.34 8.44Q92.90 7.56 92.65 7.29Q92.40 7.02 92.04 7.02L92.04 7.02Q91.98 7.02 91.98 6.90Q91.98 6.78 92.04 6.78L92.04 6.78Q92.44 6.78 92.89 6.80Q93.34 6.82 93.74 6.82L93.74 6.82Q94.46 6.82 95 6.80Q95.54 6.78 95.98 6.78L95.98 6.78Q96.04 6.78 96.04 6.90Q96.04 7.02 95.98 7.02L95.98 7.02Q95.28 7.02 95.08 7.18Q94.88 7.34 95.10 7.80L95.10 7.80L97.64 13L96.92 14.18L98.66 9.14Q99 8.16 98.71 7.59Q98.42 7.02 97.60 7.02L97.60 7.02Q97.56 7.02 97.56 6.90Q97.56 6.78 97.60 6.78L97.60 6.78Q98.08 6.78 98.51 6.80Q98.94 6.82 99.62 6.82L99.62 6.82Q100.10 6.82 100.41 6.80Q100.72 6.78 101.16 6.78ZM101.58 14.50L101.58 14.50Q101.54 14.50 101.54 14.38Q101.54 14.26 101.58 14.26L101.58 14.26Q102.20 14.26 102.43 13.97Q102.66 13.68 102.66 12.88L102.66 12.88L102.68 2.72Q102.68 2.04 102.56 1.73Q102.44 1.42 102.10 1.42L102.10 1.42Q101.84 1.42 101.34 1.64L101.34 1.64Q101.28 1.66 101.22 1.54Q101.16 1.42 101.20 1.40L101.20 1.40L104.14 0.02Q104.18 0 104.22 0L104.22 0Q104.32 0 104.44 0.09Q104.56 0.18 104.56 0.26L104.56 0.26L104.56 12.88Q104.56 13.68 104.78 13.97Q105.00 14.26 105.62 14.26L105.62 14.26Q105.70 14.26 105.70 14.38Q105.70 14.50 105.62 14.50L105.62 14.50Q105.24 14.50 104.71 14.48Q104.18 14.46 103.60 14.46L103.60 14.46Q103.02 14.46 102.50 14.48Q101.98 14.50 101.58 14.50ZM107.02 14.50L107.02 14.50Q106.96 14.50 106.96 14.38Q106.96 14.26 107.02 14.26L107.02 14.26Q107.64 14.26 107.86 13.97Q108.08 13.68 108.08 12.88L108.08 12.88L108.08 9.30Q108.08 8.64 107.95 8.33Q107.82 8.02 107.48 8.02L107.48 8.02Q107.34 8.02 107.15 8.08Q106.96 8.14 106.74 8.24L106.74 8.24Q106.66 8.26 106.61 8.14Q106.56 8.02 106.62 8L106.62 8L109.64 6.60Q109.68 6.58 109.70 6.58L109.70 6.58Q109.80 6.58 109.90 6.68Q110.00 6.78 110.00 6.86L110.00 6.86Q110.00 7.10 109.98 7.66Q109.96 8.22 109.96 9.26L109.96 9.26L109.96 12.88Q109.96 13.68 110.19 13.97Q110.42 14.26 111.04 14.26L111.04 14.26Q111.10 14.26 111.10 14.38Q111.10 14.50 111.04 14.50L111.04 14.50Q110.64 14.50 110.12 14.48Q109.60 14.46 109.02 14.46L109.02 14.46Q108.46 14.46 107.94 14.48Q107.42 14.50 107.02 14.50ZM108.94 4.60L108.94 4.60Q108.38 4.60 108.05 4.28Q107.72 3.96 107.72 3.38L107.72 3.38Q107.72 2.86 108.05 2.55Q108.38 2.24 108.94 2.24L108.94 2.24Q109.50 2.24 109.80 2.55Q110.10 2.86 110.10 3.38L110.10 3.38Q110.10 4.60 108.94 4.60ZM117.66 14.50L117.66 14.50Q117.60 14.50 117.60 14.38Q117.60 14.26 117.66 14.26L117.66 14.26Q118.28 14.26 118.50 13.97Q118.72 13.68 118.72 12.88L118.72 12.88L118.72 10Q118.72 8.92 118.33 8.40Q117.94 7.88 117.10 7.88L117.10 7.88Q116.50 7.88 115.87 8.18Q115.24 8.48 114.86 9L114.86 9L114.76 8.76Q115.46 7.76 116.34 7.15Q117.22 6.54 118.26 6.54L118.26 6.54Q119.38 6.54 119.99 7.24Q120.60 7.94 120.60 9.04L120.60 9.04L120.60 12.88Q120.60 13.68 120.83 13.97Q121.06 14.26 121.68 14.26L121.68 14.26Q121.74 14.26 121.74 14.38Q121.74 14.50 121.68 14.50L121.68 14.50Q121.28 14.50 120.76 14.48Q120.24 14.46 119.66 14.46L119.66 14.46Q119.10 14.46 118.58 14.48Q118.06 14.50 117.66 14.50ZM112.28 14.50L112.28 14.50Q112.22 14.50 112.22 14.38Q112.22 14.26 112.28 14.26L112.28 14.26Q112.90 14.26 113.12 13.97Q113.34 13.68 113.34 12.88L113.34 12.88L113.34 9.12Q113.34 8.50 113.20 8.21Q113.06 7.92 112.72 7.92L112.72 7.92Q112.54 7.92 112.30 7.99Q112.06 8.06 111.76 8.20L111.76 8.20Q111.68 8.24 111.64 8.12Q111.60 8 111.64 7.98L111.64 7.98L114.42 6.62Q114.54 6.58 114.56 6.58L114.56 6.58Q114.78 6.58 115.00 7.06Q115.22 7.54 115.22 8.44L115.22 8.44L115.22 12.88Q115.22 13.68 115.45 13.97Q115.68 14.26 116.30 14.26L116.30 14.26Q116.36 14.26 116.36 14.38Q116.36 14.50 116.30 14.50L116.30 14.50Q115.90 14.50 115.38 14.48Q114.86 14.46 114.28 14.46L114.28 14.46Q113.72 14.46 113.20 14.48Q112.68 14.50 112.28 14.50ZM122.44 14.50L122.44 14.50Q122.40 14.50 122.40 14.38Q122.40 14.26 122.44 14.26L122.44 14.26Q123.06 14.26 123.29 13.97Q123.52 13.68 123.52 12.88L123.52 12.88L123.52 2.72Q123.52 2.04 123.40 1.73Q123.28 1.42 122.94 1.42L122.94 1.42Q122.66 1.42 122.18 1.64L122.18 1.64Q122.12 1.66 122.06 1.54Q122.00 1.42 122.04 1.40L122.04 1.40L124.96 0.02Q125.00 0 125.02 0Q125.04 0 125.06 0L125.06 0Q125.16 0 125.27 0.09Q125.38 0.18 125.38 0.26L125.38 0.26L125.38 12.88Q125.38 13.68 125.61 13.97Q125.84 14.26 126.46 14.26L126.46 14.26Q126.54 14.26 126.54 14.38Q126.54 14.50 126.46 14.50L126.46 14.50Q126.06 14.50 125.55 14.48Q125.04 14.46 124.46 14.46L124.46 14.46Q123.88 14.46 123.36 14.48Q122.84 14.50 122.44 14.50ZM127.82 14.50L127.82 14.50Q127.78 14.50 127.78 14.38Q127.78 14.26 127.82 14.26L127.82 14.26Q128.44 14.26 128.67 13.97Q128.90 13.68 128.90 12.88L128.90 12.88L128.90 10Q128.90 7.88 127.26 7.88L127.26 7.88Q126.66 7.88 126.03 8.18Q125.40 8.48 125.04 9L125.04 9L124.92 8.76Q125.62 7.76 126.50 7.15Q127.38 6.54 128.42 6.54L128.42 6.54Q129.54 6.54 130.15 7.24Q130.76 7.94 130.76 9.04L130.76 9.04L130.76 12.88Q130.76 13.68 130.99 13.97Q131.22 14.26 131.84 14.26L131.84 14.26Q131.92 14.26 131.92 14.38Q131.92 14.50 131.84 14.50L131.84 14.50Q131.44 14.50 130.93 14.48Q130.42 14.46 129.84 14.46L129.84 14.46Q129.26 14.46 128.74 14.48Q128.22 14.50 127.82 14.50Z"></path></g></svg></svg>